<?xml version="1.0" encoding="utf-8"?>
<!-- Generator: Adobe Illustrator 16.0.0, SVG Export Plug-In . SVG Version: 6.00 Build 0)  -->
<!DOCTYPE svg PUBLIC "-//W3C//DTD SVG 1.1 Tiny//EN" "http://www.w3.org/Graphics/SVG/1.1/DTD/svg11-tiny.dtd">
<svg version="1.1" baseProfile="tiny" id="Camada_1"
	 xmlns="http://www.w3.org/2000/svg" xmlns:xlink="http://www.w3.org/1999/xlink" x="0px" y="0px" width="938px" height="986px"
	 viewBox="0 0 938 986" xml:space="preserve">
<path fill="#E6B400" d="M837.402,316.12c7.877-7.678,5.415-15.254-5.471-16.836l-222.108-32.274
	c-10.886-1.582-23.775-10.947-28.644-20.811L481.852,44.935c-4.868-9.864-12.834-9.864-17.703,0l-99.329,201.264
	c-4.869,9.864-17.758,19.229-28.644,20.811l-222.108,32.274c-10.886,1.582-13.347,9.158-5.47,16.836l160.719,156.663
	c7.877,7.678,12.8,22.83,10.941,33.672l-37.941,221.211c-1.859,10.842,4.585,15.523,14.322,10.405l152.902-80.386
	c0.523-1.494,0.835-3.113,0.835-4.899c0-12.574-0.272-44.923-0.272-44.923s-9.925,1.689-24.087,1.689
	c-35.687,0-46.971-22.646-52.342-35.322c-6.99-16.507-16.054-24.259-25.684-30.456c-5.914-3.809-7.273-8.293-0.43-9.577
	c31.586-5.915,39.664,35.628,60.76,42.253c15.057,4.721,34.418,2.681,44.049-3.516c1.269-12.688,10.468-23.662,18.127-29.441
	c-53.656-5.127-85.47-23.662-101.966-53.452l-1.767-3.336l-4.146-9.464l-1.224-3.392c-5.166-15.121-7.455-32.438-7.455-51.785
	c0-34.343,10.763-47.3,25.208-65.609c-11.046-39.155,3.966-65.914,3.966-65.914s23.225-4.789,67.127,26.478
	c23.791-10.141,87.237-10.986,117.26-2.254c18.41-12.112,52.115-29.295,65.711-24.484c3.683,5.893,11.613,23.076,4.815,60.822
	c4.611,8.281,28.606,25.915,28.698,75.772c-0.386,18.388-2.313,33.915-5.882,47.041l-1.981,6.716c0,0-1.133,3.166-2.368,6.186
	l-1.45,3.335c-15.918,34.771-48.569,47.751-101.331,53.148c17.097,10.704,22.002,24.134,22.002,60.472
	c0,36.337-0.487,41.216-0.374,49.576c0.02,1.447,0.268,2.813,0.686,4.107l153.337,80.614c9.737,5.118,16.182,0.437,14.322-10.405
	l-37.94-221.211c-1.859-10.842,3.063-25.994,10.94-33.672L837.402,316.12z"/>
<path fill="#E9BC00" d="M573.087,654.346c-9.736-5.118-17.693-9.781-17.684-10.36c0,0,0,0,0.01-0.57
	c0.119-6.897,0.3-17.319,0.3-39.643c0-18.313-1.564-26.106-1.564-26.106c-2.164-10.785,4.574-22.541,14.975-26.124
	c0,0,47.267-16.285,64.104-53.064c0.054-0.116,0.054-0.116,0.054-0.116c0.057-0.128,0.429-0.983,0.827-1.9
	c0.399-0.918,0.777-1.788,0.841-1.936c0,0,0,0,0.055-0.135c1.389-3.395,2.636-6.875,2.688-7.021
	c0.127-0.355,0.127-0.355,0.127-0.355c0.123-0.397,0.67-2.233,1.215-4.08c0.545-1.848,1.026-3.481,1.07-3.632c0,0,0,0,0.037-0.138
	c4.004-14.722,6.155-31.688,6.578-51.869c0.004-0.152,0.005-0.305,0.005-0.457c-0.084-45.557-15.356-65.263-15.356-65.263
	c-6.738-8.694-12.194-24.808-12.126-35.808c0,0,1.716-14.369-0.614-22.713c-2.331-8.344,4.668-13.877,15.554-12.295l154.772,22.489
	c10.886,1.582,13.348,9.158,5.471,16.836L677.045,444.501c-7.877,7.678-18.75,21.598-24.162,30.933
	c-5.412,9.336-5.33,43.271-3.471,54.113l27.709,161.559c1.859,10.842-4.585,15.523-14.322,10.405L573.087,654.346z M288.568,576.312
	c1.859-10.842,4.827-18.496,6.594-17.011c0,0,0,0,2,1.287c7.852,5.054,13.327,10.18,18.096,21.44
	c13.362,31.536,37.168,47.523,70.758,47.523c1.458,0,1.458,0,1.458,0c1.535-0.024,2.807,2.412,2.826,5.415
	c0.019,3.004-7.911,14.396-17.647,19.515L283.2,701.51c-9.736,5.118-16.181,0.437-14.322-10.405L288.568,576.312z M389.652,558.865
	c-1.786,0.099-7.116-0.082-11.843-0.401c0,0,0,0-3.505-1.099c-1.891-0.645-1.891-0.645-1.891-0.645
	c-3.829-4.656-2.674-6.827,2.567-4.824c5.24,2.004,20.413,6.212,20.407,6.229C395.381,558.142,391.438,558.766,389.652,558.865z
	 M299.451,512.858c0.285-1.663-0.389-11.806-1.497-22.54s-21.122-38.141-28.999-45.818L151.577,330.084
	c-7.877-7.678-5.416-15.254,5.47-16.836l144.959-21.063c10.886-1.582,17.529,4.713,14.763,13.988s-4.384,52.988-10.579,62.078
	c0,0-12.252,17.981-12.252,53.813c0,22.398,2.79,41.452,8.529,58.251c0.037,0.107,0.037,0.107,0.037,0.107
	c0.715,1.983,1.371,3.793,1.458,4.021s1.269,2.951,2.409,5.555c1.14,2.603,2.166,4.934,2.28,5.182
	c0.114,0.247,0.836,1.637,1.322,2.554c0.486,0.917,0.937,1.767,1.001,1.887c0,0,0,0,0.06,0.108c2.824,5.101,2.824,5.101,2.824,5.101
	c3.66,5.104,4.605,9.06,2.101,8.793c0,0,0,0-2.431,0c-3.155,0-6.401,0.308-9.648,0.916c-1.734,0.325-1.734,0.325-1.734,0.325
	C300.378,515.424,299.166,514.521,299.451,512.858z M433.177,292.33c-10.907,1.431-27.421-1.527-36.699-6.572
	s-26.061-14.978-22.872-18.152c3.189-3.174,13.13-20.626,17.999-30.49l72.544-146.991c4.868-9.864,12.834-9.864,17.703,0
	l72.542,146.99c4.868,9.864,10.438,20.446,12.379,23.515c1.94,3.069,0.21,13.556-10.031,17.569c0,0-7.513,0.902-16.446,5.956
	c-8.933,5.053-25.154,7.933-36.047,6.399c0,0-12.69-1.787-32.146-1.787C460.337,288.767,433.177,292.33,433.177,292.33z"/>
<path fill="#FFFFFF" d="M535.713,603.772c0-36.338-4.905-49.768-22.002-60.472c52.762-5.397,85.413-18.378,101.331-53.148
	l1.45-3.335c1.235-3.02,2.368-6.186,2.368-6.186l1.981-6.716c3.569-13.126,5.496-28.653,5.882-47.041
	c-0.092-49.857-24.087-67.492-28.698-75.772c6.798-37.746-1.133-54.929-4.815-60.822c-13.596-4.811-47.301,12.372-65.711,24.484
	c-30.022-8.732-93.469-7.887-117.26,2.254c-43.902-31.267-67.127-26.478-67.127-26.478s-15.012,26.759-3.966,65.914
	c-14.445,18.309-25.208,31.266-25.208,65.609c0,19.347,2.289,36.664,7.455,51.785l1.224,3.392l4.146,9.464l1.767,3.336
	c16.496,29.79,48.31,48.325,101.966,53.452c-7.659,5.779-16.858,16.754-18.127,29.441c-9.631,6.196-28.992,8.236-44.049,3.516
	c-21.096-6.625-29.174-48.168-60.76-42.253c-6.843,1.284-5.484,5.769,0.43,9.577c9.63,6.197,18.694,13.949,25.684,30.456
	c5.371,12.676,16.655,35.322,52.342,35.322c14.162,0,24.087-1.689,24.087-1.689s0.272,32.349,0.272,44.923
	c0,1.786-0.312,3.405-0.835,4.899l45.757-24.056c9.736-5.118,25.668-5.118,35.406,0l45.321,23.827
	c-0.418-1.294-0.666-2.66-0.686-4.107C535.226,644.988,535.713,640.109,535.713,603.772z"/>
<g>
	<path fill="none" d="M859.721,828.991c-1.316-1.942-3.095-3.575-5.34-4.898c-2.245-1.319-4.989-1.982-8.24-1.982h-24.606
		c-1.545,0-2.86,0.546-3.943,1.633c-1.086,1.089-1.625,2.412-1.625,3.965v24.726c0,1.557,0.539,2.88,1.625,3.966
		c1.083,1.09,2.398,1.633,3.943,1.633h24.606c1.854,0,3.79-0.35,5.802-1.05c2.012-0.699,3.867-1.786,5.569-3.266
		c1.702-1.476,3.095-3.302,4.181-5.481c1.082-2.176,1.625-4.742,1.625-7.698c0-1.552-0.273-3.382-0.813-5.481
		C861.962,832.957,861.032,830.938,859.721,828.991z"/>
	<path fill="none" d="M696.769,867.246c-2.18-5.208-4.199-10.066-6.064-14.579c-0.625-1.399-1.324-2.1-2.1-2.1
		c-0.781,0-1.48,0.7-2.1,2.1l-11.664,28.225c-0.623,1.399-0.623,2.606,0,3.616c0.621,1.013,1.787,1.516,3.5,1.516h20.76
		c1.553,0,2.684-0.503,3.383-1.516c0.699-1.01,0.66-2.217-0.117-3.616C700.81,877.007,698.944,872.458,696.769,867.246z"/>
	<path fill="#E6B400" d="M498.728,793.331c-6.901-4.458-14.013-8.056-21.343-10.759c-10.344-3.809-22.043-5.715-35.106-5.715
		c-7.464,0-15.162,0.816-23.093,2.449c-7.931,1.633-15.126,4.512-21.577,8.63c-6.455,4.123-11.78,9.681-15.978,16.679
		c-4.199,6.998-6.298,15.861-6.298,26.592c0,7.312,1.126,13.646,3.382,19.011c2.252,5.365,5.249,9.994,8.98,13.879
		c3.732,3.89,7.967,7.078,12.713,9.564c4.742,2.489,9.523,4.548,14.346,6.181c4.818,1.633,9.523,2.88,14.112,3.732
		c4.585,0.856,8.591,1.597,12.013,2.216c3.575,0.78,7.074,1.4,10.497,1.866c3.419,0.467,6.415,1.09,8.98,1.866
		c2.566,0.78,4.625,1.75,6.182,2.916c1.553,1.166,2.333,2.763,2.333,4.782c0,3.889-1.79,6.805-5.365,8.747
		c-3.58,1.946-8.788,2.916-15.629,2.916c-7.154,0-14.852-1.553-23.093-4.666c-8.245-3.108-16.562-7.384-24.959-12.829
		c-1.247-0.776-2.646-1.01-4.199-0.7c-1.557,0.313-2.799,1.09-3.732,2.333l-17.961,25.893c-0.933,1.246-1.323,2.682-1.167,4.314
		c0.153,1.634,0.853,2.916,2.1,3.85c4.352,3.579,9.133,6.961,14.345,10.146c5.208,3.189,10.847,5.948,16.912,8.281
		c6.065,2.332,12.596,4.162,19.594,5.481c6.998,1.319,14.539,1.982,22.626,1.982c9.95,0,19.011-1.05,27.175-3.148
		c8.164-2.1,15.162-5.325,20.994-9.681c5.831-4.352,10.38-9.914,13.646-16.679s4.898-14.812,4.898-24.143
		c0-9.95-1.983-18.23-5.948-24.842c-3.965-6.608-8.863-11.974-14.695-16.096c-5.832-4.118-12.094-7.23-18.778-9.33
		c-6.688-2.1-12.829-3.692-18.427-4.782c-1.09-0.153-3.579-0.583-7.464-1.282c-3.889-0.7-7.931-1.67-12.129-2.916
		c-4.199-1.243-7.931-2.719-11.197-4.433c-3.266-1.709-4.898-3.651-4.898-5.831c0-2.176,0.66-3.886,1.982-5.132
		c1.32-1.243,2.993-2.136,5.015-2.683c2.02-0.543,4.159-0.853,6.415-0.933c2.252-0.077,4.235-0.117,5.948-0.117
		c5.751,0,12.049,1.05,18.894,3.149c6.841,2.1,14.229,5.639,22.159,10.613c1.244,0.933,2.643,1.246,4.199,0.933
		c1.553-0.31,2.799-1.086,3.732-2.332l9.711-13.819c-0.558-0.873-0.848-1.862-0.848-2.976V793.331z"/>
	<path fill="#E6B400" d="M631.57,820.477c1.009-1.086,1.517-2.408,1.517-3.965v-31.724c0-1.553-0.508-2.876-1.517-3.966
		c-1.014-1.086-2.373-1.633-4.083-1.633H504.325c-1.556,0-2.879,0.547-3.965,1.633c-1.09,1.09-1.633,2.413-1.633,3.966v8.543
		c2.834,1.831,5.637,3.792,8.398,5.919c1.242,1.09,1.942,2.413,2.1,3.966c0.152,1.556-0.234,2.956-1.167,4.198l-8.483,12.073
		c0.222,0.347,0.475,0.681,0.785,0.989c1.086,1.09,2.409,1.634,3.965,1.634h33.123c1.71,0,3.069,0.546,4.082,1.633
		c1.01,1.089,1.518,2.412,1.518,3.965v116.631c0,1.557,0.543,2.88,1.633,3.966c1.086,1.09,2.408,1.633,3.965,1.633h34.989
		c1.71,0,3.069-0.543,4.082-1.633c1.01-1.086,1.517-2.409,1.517-3.966V827.708c0-1.553,0.543-2.876,1.633-3.965
		c1.086-1.087,2.408-1.633,3.965-1.633h32.656C629.197,822.11,630.557,821.566,631.57,820.477z"/>
	<path fill="#E9BC00" d="M509.226,803.216c-0.157-1.553-0.857-2.876-2.1-3.966c-2.762-2.127-5.564-4.088-8.398-5.919v23.181
		c0,1.113,0.29,2.103,0.848,2.976l8.483-12.073C508.991,806.172,509.378,804.771,509.226,803.216z"/>
	<path fill="#E6B400" d="M769.779,944.339V917.1l-56.917-132.545c-0.623-1.399-1.672-2.603-3.148-3.615
		c-1.479-1.01-2.996-1.517-4.549-1.517h-32.656c-1.713,0-3.307,0.507-4.781,1.517c-1.48,1.013-2.529,2.216-3.15,3.615
		l-67.645,157.918c-0.62,1.247-0.854,2.333-0.701,3.267c0.157,0.933,0.508,1.713,1.051,2.332c0.547,0.623,1.246,1.09,2.1,1.399
		c0.855,0.313,1.672,0.467,2.449,0.467h40.121c1.553,0,3.068-0.503,4.549-1.517c1.475-1.009,2.525-2.216,3.148-3.615l6.531-13.996
		c0.619-1.399,1.67-2.602,3.148-3.615c1.477-1.01,3.068-1.516,4.783-1.516h49.217c1.553,0,3.07,0.506,4.549,1.516
		c1.477,1.014,2.604,2.216,3.383,3.615l6.299,13.996c0.775,1.399,1.902,2.606,3.381,3.615c1.477,1.014,3.07,1.517,4.783,1.517
		h39.684c-1.563,0-2.895-0.543-3.987-1.633C770.326,947.219,769.779,945.896,769.779,944.339z M702.483,884.508
		c-0.699,1.013-1.83,1.516-3.383,1.516h-20.76c-1.713,0-2.879-0.503-3.5-1.516c-0.623-1.01-0.623-2.217,0-3.616l11.664-28.225
		c0.619-1.399,1.318-2.1,2.1-2.1c0.775,0,1.475,0.7,2.1,2.1c1.865,4.513,3.885,9.371,6.064,14.579
		c2.176,5.212,4.041,9.761,5.598,13.646C703.144,882.291,703.183,883.498,702.483,884.508z"/>
	<path fill="#E6B400" d="M919.534,943.64c-5.132-6.842-10.964-14.382-17.495-22.627c-6.531-8.24-12.753-16.248-18.661-24.025
		c-0.933-1.243-1.206-2.526-0.816-3.85c0.387-1.319,1.203-2.449,2.449-3.382c3.732-2.333,7.075-5.248,10.03-8.747
		c2.952-3.499,5.519-7.425,7.698-11.78c2.176-4.352,3.849-8.98,5.015-13.879c1.167-4.898,1.75-9.833,1.75-14.813
		c0-9.017-1.517-17.261-4.549-24.726c-3.032-7.464-7.231-13.915-12.597-19.36c-5.364-5.441-11.859-9.681-19.477-12.713
		c-7.621-3.032-15.942-4.549-24.959-4.549h-72.545c-1.557,0-2.879,0.547-3.966,1.633c-1.09,1.09-1.633,2.413-1.633,3.966V917.1
		l11.196,26.073c0.619,1.399,0.504,2.879-0.35,4.432c-0.857,1.557-2.529,2.333-5.016,2.333h34.728c1.561,0,2.891-0.543,3.983-1.633
		c1.094-1.086,1.645-2.409,1.645-3.966v-37.788c0-1.553,0.539-2.876,1.625-3.966c1.083-1.086,2.398-1.633,3.947-1.633h5.106
		c1.545,0,3.171,0.431,4.873,1.283c1.702,0.856,3.018,1.906,3.947,3.149c4.796,6.845,9.633,13.609,14.51,20.294
		c4.876,6.688,9.789,13.296,14.743,19.827c0.933,1.246,2.292,2.296,4.082,3.148c1.785,0.856,3.458,1.283,5.015,1.283h43.387
		c1.553,0,2.566-0.736,3.032-2.216C920.7,946.245,920.467,944.886,919.534,943.64z M861.692,848.235
		c-1.086,2.18-2.479,4.006-4.181,5.481c-1.702,1.479-3.558,2.566-5.569,3.266c-2.012,0.7-3.947,1.05-5.802,1.05h-24.606
		c-1.545,0-2.86-0.543-3.943-1.633c-1.086-1.086-1.625-2.409-1.625-3.966v-24.726c0-1.553,0.539-2.876,1.625-3.965
		c1.083-1.087,2.398-1.633,3.943-1.633h24.606c3.251,0,5.995,0.663,8.24,1.982c2.245,1.323,4.023,2.956,5.34,4.898
		c1.312,1.946,2.241,3.966,2.784,6.064c0.539,2.1,0.813,3.93,0.813,5.481C863.317,843.493,862.774,846.06,861.692,848.235z"/>
	<g>
		<path d="M115.573,952.97c-12.443,0-24.106-2.332-34.989-6.998c-10.887-4.665-20.411-10.963-28.575-18.894
			c-8.165-7.932-14.619-17.262-19.361-27.992c-4.746-10.729-7.115-22.159-7.115-34.289s2.369-23.56,7.115-34.29
			c4.742-10.729,11.196-20.097,19.361-28.107c8.164-8.008,17.688-14.346,28.575-19.011c10.883-4.666,22.546-6.998,34.989-6.998
			c17.104,0,31.993,3.499,44.669,10.497c12.673,6.997,22.977,16.642,30.907,28.924c0.776,1.247,0.97,2.683,0.583,4.315
			c-0.39,1.633-1.206,2.84-2.449,3.616l-27.991,17.961c-1.247,0.779-2.646,1.05-4.199,0.816c-1.556-0.233-2.879-0.97-3.965-2.216
			c-4.822-5.908-10.227-10.65-16.212-14.229c-5.988-3.575-13.103-5.365-21.343-5.365c-5.912,0-11.47,1.207-16.678,3.616
			c-5.212,2.412-9.761,5.638-13.646,9.68c-3.889,4.046-6.961,8.748-9.214,14.112c-2.256,5.365-3.382,10.928-3.382,16.679
			c0,5.912,1.126,11.51,3.382,16.795c2.252,5.288,5.325,9.913,9.214,13.879c3.885,3.966,8.434,7.154,13.646,9.563
			c5.208,2.413,10.766,3.616,16.678,3.616c5.908,0,11.739-1.086,17.495-3.266c5.751-2.176,10.34-5.752,13.762-10.73
			c0.776-1.243,0.853-2.369,0.233-3.382c-0.623-1.01-1.713-1.517-3.266-1.517h-26.825c-1.556,0-2.879-0.543-3.965-1.633
			c-1.09-1.086-1.633-2.409-1.633-3.966v-27.758c0-1.553,0.543-2.876,1.633-3.966c1.086-1.086,2.409-1.633,3.965-1.633h80.242
			c1.553,0,2.916,0.507,4.082,1.517c1.167,1.013,1.826,2.373,1.983,4.082c0.31,2.646,0.466,5.872,0.466,9.681
			c0,3.813-0.233,7.737-0.7,11.779c-1.09,10.73-4.122,20.684-9.097,29.857c-4.979,9.178-11.394,17.108-19.244,23.793
			c-7.854,6.688-16.835,11.937-26.942,15.745C137.652,951.063,126.922,952.97,115.573,952.97z"/>
		<path d="M254.627,949.938h-35.048c-1.702,0-3.054-0.543-4.06-1.633c-1.006-1.086-1.509-2.409-1.509-3.966V785.021
			c0-1.553,0.503-2.876,1.509-3.966c1.006-1.086,2.358-1.633,4.06-1.633h35.048c1.545,0,2.861,0.547,3.943,1.633
			c1.083,1.09,1.625,2.413,1.625,3.966v159.317c0,1.557-0.543,2.88-1.625,3.966C257.488,949.395,256.172,949.938,254.627,949.938z"
			/>
		<path d="M391.522,822.11h-32.657c-1.556,0-2.879,0.546-3.965,1.633c-1.09,1.089-1.633,2.412-1.633,3.965v116.631
			c0,1.557-0.507,2.88-1.517,3.966c-1.014,1.09-2.373,1.633-4.082,1.633H312.68c-1.557,0-2.88-0.543-3.966-1.633
			c-1.09-1.086-1.633-2.409-1.633-3.966V827.708c0-1.553-0.507-2.876-1.516-3.965c-1.014-1.087-2.373-1.633-4.082-1.633H268.36
			c-1.556,0-2.879-0.544-3.965-1.634c-1.09-1.086-1.633-2.408-1.633-3.965v-31.724c0-1.553,0.543-2.876,1.633-3.966
			c1.086-1.086,2.409-1.633,3.965-1.633h123.163c1.709,0,3.068,0.547,4.082,1.633c1.01,1.09,1.516,2.413,1.516,3.966v31.724
			c0,1.557-0.506,2.879-1.516,3.965C394.591,821.566,393.231,822.11,391.522,822.11z"/>
	</g>
</g>
</svg>
